<?xml version="1.0" encoding="utf-8"?>
<svg width="110" height="80" xmlns="http://www.w3.org/2000/svg"><g fill="none" fill-rule="evenodd"><path d="M94.075 75.794c-1.978.344-3.917.53-5.875 1.018-2.144.535-4.483 1.14-6.677 1.43-2.33.31-4.435.802-6.75 1.196-2.138.364-4.373.608-6.45-.18-1.375-.521-2.028-1.5-2.194-2.835-.16-1.291-.042-2.239-1.495-2.102-1.758.164-3.912.943-5.634 1.318-1.652.361-3.226.736-5.002 1.207-1.543.41-3.041.949-4.593 1.341-1.583.401-3.164.817-4.792.87-1.44.049-3.567.06-4.429-1.353-1.095-1.798-.3-2.506.594-3.86.367-.557 1.977-1.703 2.499-2.14.681-.573 1.248-.812 1.963-1.37.74-.577 1.428-1.011 2.44-1.725.727-.513 3.271-1.011 2.26-2.142-1.963-.297-2.732-.283-4.462-.178-1.096.066-2.72.226-3.807.357-.966.116-2.497.217-3.451.476-.665.18-1.725.453-3.003.893-2.055.708-4.1 1.445-6.159 2.14-2.48.84-4.877 1.864-7.244 2.998-2.277 1.091-4.238 1.941-7.008 2.794-1.63.503-4.943.686-5.202-1.686-.185-1.696 1.167-3.027 2.32-4.105.973-.91 1.843-1.915 2.764-2.873a29.992 29.992 0 0 1 2.718-2.51c.932-.753 1.775-1.583 2.685-2.375a49.2 49.2 0 0 1 6.885-5.033c.471-.287 1.368-.476 1.428-1.309-.595-.595-3.273-.238-4.826.022-2.163.36-3.98 1.004-6.115 1.51-2.069.488-4.462 1.166-6.565 1.923-1.907.687-3.815 1.717-5.693 2.483-1.14.466-2.252.912-3.362 1.44-.513.246-1.946.82-1.837-.222.141-1.346 2.543-2.198 3.53-2.694 1.688-.848 3.222-1.424 4.59-1.912 3.169-1.132 5.43-1.874 8.035-2.434.517-.111 2.702-.8 4.509-1.127 3.505-.635 4.698-1.125 9.4-.892.936.046 3.994 1.442 3.39 2.498-.476.833-2.024.788-2.855 1.13-2.647 1.09-4.651 2.385-7.02 3.986-1.125.76-2.575 2.004-3.58 2.942-1.91 1.781-4.13 3.688-5.88 5.625-.45.5-2.635 2.684-1.963 3.51.662.814 3.937-.943 4.64-1.19 1.832-.641 3.633-1.25 5.414-2.022.899-.389 4.838-1.963 5.771-2.32.972-.373 2.817-1.051 3.808-1.369 2.515-.804 5.123-1.549 7.693-2.147 2.81-.654 6.026-.506 8.905-.47a5.814 5.814 0 0 1 2.829.755c.828.476 1.346 1.271 1.871 2.04.512.75 1.633 2.15.892 2.976-.835.93-1.182-.13-2.022.357-1.463.846-2.838 1.674-4.366 2.385-1.012.472-3 1.703-3.844 2.612-.774.833-.327 1.227 2.38.476 3.212-.892 6.45-1.526 9.697-2.559 3.072-.977 5.027-1.347 8.21-2.082 1.692-.39 3.255-.45 4.99-.212 2.862.39.662 3.663 4.38 3.32 1.602-.148 3.238-.5 4.806-.785 3.354-.61 6.758-.996 10.129-1.503 1.895-.286 3.77-.692 5.671-.948 1.862-.25 3.74-.244 5.61-.405 1.674-.144 3.35-.361 5.03-.378 1.476-.015 6.153.656 4.688 3.261-.861 1.531-3.07 1.421-4.552 1.41-2.273-.02-4.524.001-6.79.219a50.714 50.714 0 0 0-3.927.529z" fill="#FFF101"/><path fill="#15233C" d="M.973 50.698h36.964V.286H.973z"/><path d="M1.94 49.7c11.742-9.16 28.312-31.105 35.012-48.415v48.447L10.238 49.7" fill="#FFFFFE"/><path d="M1.951 30.07c3.07-4.325 17.418-20.276 19.46-28.92 0 0 .194 18.716.082 27.192 0 0-9.508 3.766-19.542 1.727" fill="#FFFFFE"/><path d="M1.928 17.66C3.547 15.292 11.37 5.825 12.447 1.09c0 0 .036 10.892-.023 15.533 0 0-5.208 2.154-10.496 1.037" fill="#FFFFFE"/><path d="M1.963 10.305C2.861 8.993 7.181 3.9 7.777 1.276c0 0 .016 5.87-.017 8.443 0 0-2.865 1.204-5.797.586" fill="#FFFFFE"/><path d="M1.969 6.286c.491-.72 2.87-3.599 3.198-5.038 0 0 0 3.305-.018 4.715 0 0-1.573.662-3.18.323" fill="#FFFFFE"/><path d="M44.307 25.283c2.652 0 4.189-2.368 4.7-7.24.475-4.534-1.003-5.797-2.19-6.811-.914-.781-1.636-1.398-1.438-3.277.144-1.379.52-2.17 1.034-2.17.124 0 .355 0 .462.583.09.442.08 1.177-.033 2.248l-.028.265h2.955l.078-.741c.271-2.59-.05-4.412-.956-5.419-.527-.584-1.244-.88-2.13-.88-2.443 0-4.038 2.383-4.492 6.713-.505 4.823.986 6.075 2.185 7.08.903.758 1.617 1.357 1.414 3.288-.059.567-.32 2.416-1.197 2.416a.435.435 0 0 1-.346-.145c-.29-.322-.364-1.173-.221-2.53l.108-1.039h-2.954l-.172 1.638c-.259 2.465.04 4.134.91 5.102.55.61 1.328.92 2.311.92M53.829 16.139l1.407-7.169-.073 7.169h-1.334zm-1.705 8.71l.823-4.208h2.17l-.044 4.209h3.142l-.409-22.576h-3.63L48.968 24.85h3.155zM65.326 2.274H62.28L59.913 24.85h3.046l2.367-22.576M65.14 24.85h6.755l.491-4.688h-3.71l1.876-17.888h-3.046L65.14 24.85M48.3 28.157L47.093 39.69l-.483-11.533h-3.391L40.85 50.734h2.771l1.302-12.412.527 12.412h3.346l2.366-22.577h-2.862M52.896 28.157L50.53 50.734h6.953l.491-4.689h-3.907l.478-4.566h3.512l.491-4.687h-3.51l.413-3.947h3.74l.491-4.688h-6.786M70.216 28.157l-2.062 12.639.344-12.639H65.67l-2.215 12.536.56-12.536h-3.05l-.402 22.577h3.285l2.176-12.658-.429 12.658h3.286l4.3-22.577h-2.965M78.427 35.211c-.182 1.73-.614 2.571-1.32 2.571h-.437l.556-5.309h.44c.211 0 .367.064.49.2.319.355.41 1.209.27 2.538zm2.166-6.285c-.459-.51-1.057-.769-1.776-.769h-4.184l-2.368 22.577h3.047l.904-8.635h.915c2.462 0 3.956-2.342 4.44-6.961.22-2.095.23-4.872-.978-6.212zM85.265 47.221a.304.304 0 0 1-.248-.102c-.484-.537-.332-2.895.166-7.648.578-5.502.95-7.802 1.763-7.802.117 0 .2.034.269.11.49.546.34 2.899-.157 7.641-.556 5.303-.914 7.801-1.793 7.801zm4.152-18.628c-.52-.577-1.224-.87-2.092-.87-3.75 0-4.58 5.07-5.273 11.697-.598 5.689-.662 9.294.774 10.887.512.57 1.216.86 2.091.86 4.048 0 4.699-6.214 5.273-11.696.515-4.91.812-9.117-.773-10.878zM95.668 32.639h.563c.231 0 .406.068.534.21.305.34.39 1.095.263 2.31-.135 1.288-.567 2.664-1.376 2.664h-.528l.544-5.184zm1.804-4.482h-4.52l-2.367 22.577h3.046l.956-9.13h.763c.189 0 .265.055.313.11.376.416.236 2.297.03 4.267-.267 2.544-.319 3.778-.194 4.552l.033.2h3.182l.064-.611-.087-.082c-.251-.233-.263-.835.122-4.909.243-2.57.455-4.818-.933-5.59 1.168-.785 1.858-2.508 2.157-5.363.185-1.763.182-4.113-.885-5.298-.432-.48-.998-.723-1.68-.723zM101.318 32.845h2.29l-1.876 17.889h3.046l1.876-17.889h2.29l.491-4.688h-7.625l-.492 4.688" fill="#15233C"/></g></svg>